<svg xmlns="http://www.w3.org/2000/svg" width="50" height="50" viewBox="0 0 50 50">
  <g id="inst" transform="translate(-1141 -5380)">
    <path id="Path_74" data-name="Path 74" d="M22.149,1.028c9-1.846,23.74,1.06,27.482,14.925,2.544,9.466-1.023,20.149-5.555,26.315-8.1,11-19.676,8.052-21.927,7.462C12.3,47.217-.275,36.3.514,23.023,1.274,10.219,13.934,2.717,22.149,1.028Z" transform="translate(1191.479 5430.529) rotate(180)" fill="#fff"/>
    <g id="instagram_1_" data-name="instagram (1)" transform="translate(1156 5395)">
      <g id="Group_2506" data-name="Group 2506">
        <g id="Group_2505" data-name="Group 2505">
          <path id="Path_5591" data-name="Path 5591" d="M13.75,0H6.25A6.251,6.251,0,0,0,0,6.25v7.5A6.251,6.251,0,0,0,6.25,20h7.5A6.251,6.251,0,0,0,20,13.75V6.25A6.251,6.251,0,0,0,13.75,0Z" fill="#4ac9ce"/>
        </g>
      </g>
      <g id="Group_2508" data-name="Group 2508" transform="translate(5 5)">
        <g id="Group_2507" data-name="Group 2507">
          <path id="Path_5592" data-name="Path 5592" d="M133,128a5,5,0,1,0,5,5A5,5,0,0,0,133,128Zm0,8.125A3.125,3.125,0,1,1,136.125,133,3.129,3.129,0,0,1,133,136.125Z" transform="translate(-128 -128)" fill="#fff"/>
        </g>
      </g>
      <g id="Group_2510" data-name="Group 2510" transform="translate(14.709 3.959)">
        <g id="Group_2509" data-name="Group 2509">
          <circle id="Ellipse_51" data-name="Ellipse 51" cx="0.666" cy="0.666" r="0.666" fill="#fff"/>
        </g>
      </g>
    </g>
  </g>
</svg>
