<svg xmlns="http://www.w3.org/2000/svg" width="98" height="32" viewBox="0 0 98 32">
  <g id="Group_2543" data-name="Group 2543" transform="translate(-217 -126.875)">
    <path id="Exclusion_3" data-name="Exclusion 3" d="M15.711,32a5.4,5.4,0,0,1-1.828-.319,5.2,5.2,0,0,1-2.612-2.052,5.1,5.1,0,0,1-.824-3.2l.5-6.86a8.452,8.452,0,0,1,4.41-6.787A8.725,8.725,0,0,1,19.552,11.7a8.548,8.548,0,0,1,3.949.97l6.135,3.211A5.155,5.155,0,0,1,32.3,21.557a5.326,5.326,0,0,1-1.7,2.885,5.538,5.538,0,0,1-.991.7,5.464,5.464,0,0,1-2.111.651,10.828,10.828,0,0,0-7.4,4.033l-.048.061a5.45,5.45,0,0,1-2.8,1.895A5.509,5.509,0,0,1,15.711,32ZM5.239,22.342A5.316,5.316,0,0,1,1.89,21.121,5.078,5.078,0,0,1,.017,17.694a4.022,4.022,0,0,1,.931-3,4.223,4.223,0,0,1,3.2-1.446h.083A5.318,5.318,0,0,1,7.581,14.47a5.1,5.1,0,0,1,1.835,3.09A4.037,4.037,0,0,1,8.521,20.9a3.983,3.983,0,0,1-1.112.9A4.513,4.513,0,0,1,5.239,22.342Zm24.206-8.036a3.977,3.977,0,0,1-.478-.029,4.03,4.03,0,0,1-2.705-1.57,5.066,5.066,0,0,1-.949-3.8A5.32,5.32,0,0,1,26.9,5.794a4.348,4.348,0,0,1,2.978-1.24,3.983,3.983,0,0,1,.474.028,4.036,4.036,0,0,1,2.706,1.571,5.069,5.069,0,0,1,.95,3.8,5.176,5.176,0,0,1-2.556,3.823A4.18,4.18,0,0,1,29.446,14.306Zm-18.968-.313a5.454,5.454,0,0,1-2.818-.812A6.191,6.191,0,0,1,5.476,10.9a5.97,5.97,0,0,1-.651-4.247A4.81,4.81,0,0,1,7.186,3.45a4.677,4.677,0,0,1,2.28-.579,5.452,5.452,0,0,1,2.818.812,6.191,6.191,0,0,1,2.184,2.279,5.965,5.965,0,0,1,.65,4.246,4.815,4.815,0,0,1-2.361,3.208A4.678,4.678,0,0,1,10.478,13.994ZM20.4,10.446h0A4.585,4.585,0,0,1,17.35,9.231a5.542,5.542,0,0,1-1.712-3.119,5.564,5.564,0,0,1,.646-3.831,4.5,4.5,0,0,1,3.04-2.2A4.344,4.344,0,0,1,20.141,0a4.486,4.486,0,0,1,2.8,1.005,5.476,5.476,0,0,1,1.957,3.332,5.276,5.276,0,0,1-2.428,5.579,4.28,4.28,0,0,1-2.062.531Z" transform="translate(219.749 126.875)" fill="#a457ff" opacity="0.56"/>
    <path id="Path_5616" data-name="Path 5616" d="M7.212-1.164a.959.959,0,0,1,.5.326A.693.693,0,0,1,7.861-.4a.707.707,0,0,1-.187.434A.9.9,0,0,1,7.158.32Q5.79.356,4.439.365T1.737.41A.781.781,0,0,1,.972-.368q0-2.389.018-4.76t.018-4.778a.927.927,0,0,1,.276-.525.682.682,0,0,1,.427-.19.665.665,0,0,1,.436.154.979.979,0,0,1,.32.507q0,2.244-.018,4.443T2.43-1.074q1.191-.036,2.382-.045T7.212-1.164ZM18.526-4.6q.053-.362.1-.733a6.311,6.311,0,0,0,.044-.751,5.354,5.354,0,0,0-.089-.959,2.931,2.931,0,0,0-.32-.9,2.8,2.8,0,0,0-1.191-1.195,3.435,3.435,0,0,0-1.635-.416,2.953,2.953,0,0,0-1.813.6,4.172,4.172,0,0,0-.88.923,6.1,6.1,0,0,0-.64,1.158,6.854,6.854,0,0,0-.391,1.258A6.019,6.019,0,0,0,11.576-4.4a5.069,5.069,0,0,0,.187,1.385,3.226,3.226,0,0,0,.587,1.158,3.035,3.035,0,0,0,1,.805,3.1,3.1,0,0,0,1.422.308,2.7,2.7,0,0,0,.684-.09,2.569,2.569,0,0,0,.631-.253,3.931,3.931,0,0,0,.915-.706,5.409,5.409,0,0,0,.7-.9,6.271,6.271,0,0,0,.516-1.041,10.228,10.228,0,0,0,.356-1.1Zm1.422.181A9.7,9.7,0,0,1,19.5-3.083,8.9,8.9,0,0,1,18.8-1.744a6.676,6.676,0,0,1-.924,1.158,3.724,3.724,0,0,1-1.147.8l-.5.19a3.877,3.877,0,0,1-.427.136q-.213.054-.453.1A4.35,4.35,0,0,1,14.811.7a.549.549,0,0,0-.089.009.636.636,0,0,1-.107.009,3.076,3.076,0,0,1-.942-.154q-.48-.154-.907-.3A3.31,3.31,0,0,1,11.54-.513a4.308,4.308,0,0,1-.809-1.149,5.339,5.339,0,0,1-.444-1.367,7.98,7.98,0,0,1-.133-1.448q0-.271.018-.534t.053-.516a7.7,7.7,0,0,1,.311-1.249,8.718,8.718,0,0,1,.56-1.312,7.367,7.367,0,0,1,.773-1.186,4.055,4.055,0,0,1,.933-.869,4.819,4.819,0,0,1,1.333-.624,5.1,5.1,0,0,1,1.44-.208,4.7,4.7,0,0,1,2.275.579A4.109,4.109,0,0,1,19.54-8.621,4.461,4.461,0,0,1,19.966-7.4a6.791,6.791,0,0,1,.124,1.294q0,.416-.036.842T19.948-4.422ZM31.085-10.3a.816.816,0,0,1,.693-.471.686.686,0,0,1,.48.2.684.684,0,0,1,.213.525,1.167,1.167,0,0,1-.089.4,40.307,40.307,0,0,0-2.249,4.742q-.987,2.48-1.893,4.9a.915.915,0,0,1-.3.434.677.677,0,0,1-.409.145.673.673,0,0,1-.382-.127.952.952,0,0,1-.311-.38q-.942-2.48-1.858-4.941t-1.84-4.941A.427.427,0,0,0,23.13-9.9a.427.427,0,0,1-.009-.081.8.8,0,0,1,.2-.588.642.642,0,0,1,.471-.208.826.826,0,0,1,.693.416q.462,1.213.835,2.244t.729,2q.356.968.711,1.919t.747,2.036q.2-.525.418-1.059t.436-1.059q.622-1.538,1.262-3.059A28.58,28.58,0,0,1,31.085-10.3ZM41.742-1.617a.875.875,0,0,1,.56.136.678.678,0,0,1,.284.38.723.723,0,0,1-.036.471.9.9,0,0,1-.4.425,10.972,10.972,0,0,1-1.369.29A13.277,13.277,0,0,1,39.307.22,13.327,13.327,0,0,1,37.831.193a8.337,8.337,0,0,1-1.387-.217.971.971,0,0,1-.409-.353.67.67,0,0,1-.107-.407V-8.748A.652.652,0,0,1,35.574-9a.688.688,0,0,1-.124-.4.746.746,0,0,1,.142-.425.874.874,0,0,1,.444-.317,7.559,7.559,0,0,1,1.413-.3q.72-.081,1.449-.109t1.458-.027q.729,0,1.44-.036a.826.826,0,0,1,.613.181.74.74,0,0,1,.258.452.688.688,0,0,1-.133.5.89.89,0,0,1-.56.335q-1.067.054-2.266.036a13.264,13.264,0,0,0-2.32.163v3.186q.924.036,1.858-.009t1.875-.136a.826.826,0,0,1,.613.181.74.74,0,0,1,.258.452.688.688,0,0,1-.133.5.89.89,0,0,1-.56.335q-.978.09-1.964.145t-1.946.018v2.932a9.952,9.952,0,0,0,2.213.081A11.129,11.129,0,0,0,41.742-1.617Zm4.4-8.181a1.011,1.011,0,0,1,.284-.534.654.654,0,0,1,.444-.172.487.487,0,0,1,.213.036,9.047,9.047,0,0,1,1.422-.507,5.774,5.774,0,0,1,1.493-.2,4.673,4.673,0,0,1,.969.1,3.161,3.161,0,0,1,.915.353,3.518,3.518,0,0,1,.871.652,4.072,4.072,0,0,1,.658.878,4.676,4.676,0,0,1,.418,1.023,4.035,4.035,0,0,1,.151,1.086,3.6,3.6,0,0,1-.551,1.937,4.776,4.776,0,0,1-1.44,1.475,4.166,4.166,0,0,1-1.955.643q-.213.018-.436.027t-.418.009q-.409,0-.8-.036t-.782-.09v1.557q0,.869.018,1.557a.87.87,0,0,1-.24.624.7.7,0,0,1-.489.208.682.682,0,0,1-.462-.19.922.922,0,0,1-.267-.588V-3.481a.283.283,0,0,1-.124-.036,1.019,1.019,0,0,1-.391-.344.746.746,0,0,1-.124-.4.644.644,0,0,1,.16-.425.837.837,0,0,1,.462-.262Zm5.048.38a2.558,2.558,0,0,0-1.209-.29,4.24,4.24,0,0,0-1.244.19,7.63,7.63,0,0,0-1.138.443v4.452a6.473,6.473,0,0,0,.747.136,6.348,6.348,0,0,0,.764.045,5.18,5.18,0,0,0,.747-.054,6.876,6.876,0,0,0,1.022-.262,2.184,2.184,0,0,0,.9-.588,2.767,2.767,0,0,0,.533-.869,2.647,2.647,0,0,0,.178-.941,2.674,2.674,0,0,0-.329-1.294A2.437,2.437,0,0,0,51.19-9.418Zm13.039-.561a1.067,1.067,0,0,1,.284-.543.637.637,0,0,1,.444-.181.687.687,0,0,1,.436.163.917.917,0,0,1,.293.507q-.018,1.14-.062,2.4t-.16,2.443q-.116,1.186-.32,2.226a7.143,7.143,0,0,1-.56,1.765,2.159,2.159,0,0,1-.56.751,3.4,3.4,0,0,1-.818.525,4.284,4.284,0,0,1-.951.308,4.893,4.893,0,0,1-.96.1A4.563,4.563,0,0,1,60.22.356a3.651,3.651,0,0,1-.978-.389,3.235,3.235,0,0,1-.8-.652,2.62,2.62,0,0,1-.524-.914,8.738,8.738,0,0,1-.418-1.91q-.116-1.041-.142-2.145t-.009-2.19q.018-1.086.018-2.045a1.067,1.067,0,0,1,.284-.543.636.636,0,0,1,.444-.181.687.687,0,0,1,.436.163.917.917,0,0,1,.293.507q0,.6-.018,1.367T58.78-6.983q-.009.824.018,1.647T58.9-3.789A7.239,7.239,0,0,0,59.154-2.5a2.033,2.033,0,0,0,.453.851,1.854,1.854,0,0,0,.844.534,3.3,3.3,0,0,0,.915.136,2.5,2.5,0,0,0,1.049-.235,2.49,2.49,0,0,0,.924-.76,2.191,2.191,0,0,0,.347-.842q.133-.57.231-1.294t.151-1.548q.053-.824.089-1.62t.044-1.5Q64.211-9.49,64.229-9.979Zm5.022.181a1.011,1.011,0,0,1,.284-.534.654.654,0,0,1,.444-.172.487.487,0,0,1,.213.036,9.048,9.048,0,0,1,1.422-.507,5.774,5.774,0,0,1,1.493-.2,4.673,4.673,0,0,1,.969.1,3.161,3.161,0,0,1,.915.353,3.518,3.518,0,0,1,.871.652,4.072,4.072,0,0,1,.658.878,4.676,4.676,0,0,1,.418,1.023,4.035,4.035,0,0,1,.151,1.086,3.6,3.6,0,0,1-.551,1.937A4.776,4.776,0,0,1,75.1-3.671a4.166,4.166,0,0,1-1.955.643q-.213.018-.436.027t-.418.009q-.409,0-.8-.036t-.782-.09v1.557q0,.869.018,1.557a.87.87,0,0,1-.24.624A.7.7,0,0,1,70,.827a.682.682,0,0,1-.462-.19.922.922,0,0,1-.267-.588V-3.481a.283.283,0,0,1-.124-.036,1.019,1.019,0,0,1-.391-.344.746.746,0,0,1-.124-.4.644.644,0,0,1,.16-.425.837.837,0,0,1,.462-.262Zm5.048.38a2.558,2.558,0,0,0-1.209-.29,4.24,4.24,0,0,0-1.244.19,7.63,7.63,0,0,0-1.138.443v4.452a6.473,6.473,0,0,0,.747.136,6.348,6.348,0,0,0,.764.045,5.18,5.18,0,0,0,.747-.054,6.876,6.876,0,0,0,1.022-.262,2.184,2.184,0,0,0,.9-.588,2.767,2.767,0,0,0,.533-.869,2.647,2.647,0,0,0,.178-.941,2.674,2.674,0,0,0-.329-1.294A2.437,2.437,0,0,0,74.3-9.418Zm5.875-.38a1.011,1.011,0,0,1,.284-.534A.654.654,0,0,1,80.9-10.5a.487.487,0,0,1,.213.036,9.048,9.048,0,0,1,1.422-.507,5.774,5.774,0,0,1,1.493-.2,4.673,4.673,0,0,1,.969.1,3.161,3.161,0,0,1,.915.353,3.518,3.518,0,0,1,.871.652,4.072,4.072,0,0,1,.658.878,4.676,4.676,0,0,1,.418,1.023,4.035,4.035,0,0,1,.151,1.086,3.6,3.6,0,0,1-.551,1.937,4.776,4.776,0,0,1-1.44,1.475,4.166,4.166,0,0,1-1.955.643q-.213.018-.436.027t-.418.009q-.409,0-.8-.036t-.782-.09v1.557q0,.869.018,1.557a.87.87,0,0,1-.24.624.7.7,0,0,1-.489.208.682.682,0,0,1-.462-.19.922.922,0,0,1-.267-.588V-3.481a.283.283,0,0,1-.124-.036,1.019,1.019,0,0,1-.391-.344.746.746,0,0,1-.124-.4.644.644,0,0,1,.16-.425.837.837,0,0,1,.462-.262Zm5.048.38a2.558,2.558,0,0,0-1.209-.29,4.24,4.24,0,0,0-1.244.19,7.63,7.63,0,0,0-1.138.443v4.452a6.473,6.473,0,0,0,.747.136,6.348,6.348,0,0,0,.764.045,5.18,5.18,0,0,0,.747-.054,6.876,6.876,0,0,0,1.022-.262,2.184,2.184,0,0,0,.9-.588,2.767,2.767,0,0,0,.533-.869,2.647,2.647,0,0,0,.178-.941,2.674,2.674,0,0,0-.329-1.294A2.437,2.437,0,0,0,85.223-9.418ZM95.151-.4a.87.87,0,0,1-.24.624.7.7,0,0,1-.489.208.682.682,0,0,1-.462-.19.922.922,0,0,1-.267-.588q0-1.1-.009-2.2t-.009-2.217a19.633,19.633,0,0,1-2.018-2.326,9.029,9.029,0,0,1-1.378-2.76.427.427,0,0,0-.009-.081.427.427,0,0,1-.009-.081.8.8,0,0,1,.2-.588.642.642,0,0,1,.471-.208.826.826,0,0,1,.693.416,8.17,8.17,0,0,0,1.12,2.326,15.437,15.437,0,0,0,1.635,1.964L96.1-8.178a12.666,12.666,0,0,0,1.484-2.235.929.929,0,0,1,.329-.362.723.723,0,0,1,.364-.109.686.686,0,0,1,.48.2.684.684,0,0,1,.213.525,1.168,1.168,0,0,1-.089.4A15.557,15.557,0,0,1,97.159-7.2q-1,1.2-1.955,2.4l-.071.072v2.163Q95.133-1.49,95.151-.4Z" transform="translate(216.028 149.026)" fill="#4b5169"/>
  </g>
</svg>
